<?xml version="1.0" encoding="iso-8859-1"?>
<!-- Generator: Adobe Illustrator 19.0.0, SVG Export Plug-In . SVG Version: 6.00 Build 0)  -->
<svg xmlns="http://www.w3.org/2000/svg" xmlns:xlink="http://www.w3.org/1999/xlink" version="1.1" id="Layer_1" x="0px" y="0px" viewBox="0 0 512 512" style="enable-background:new 0 0 512 512;" xml:space="preserve" width="512px" height="512px">
<g>
	<g>
		<path d="M489.026,0H416.82c-7.249,0-13.128,5.879-13.128,13.128v85.333h-61.395c-5.845-22.624-26.427-39.385-50.851-39.385    c-15.672,0-29.755,6.911-39.385,17.835c-9.63-10.924-23.712-17.835-39.385-17.835c-15.672,0-29.755,6.911-39.385,17.835    c-9.63-10.924-23.712-17.835-39.385-17.835c-9.292,0-18.021,2.439-25.6,6.693V13.128C108.308,5.879,102.43,0,95.179,0H22.974    C15.724,0,9.846,5.879,9.846,13.128v485.744c0,7.249,5.878,13.128,13.128,13.128h72.205c7.251,0,13.128-5.879,13.128-13.128    V446.23c7.579,4.254,16.308,6.693,25.6,6.693c15.672,0,29.755-6.911,39.385-17.835c9.63,10.924,23.712,17.835,39.385,17.835    c15.672,0,29.755-6.911,39.385-17.835c9.63,10.924,23.712,17.835,39.385,17.835c24.424,0,45.006-16.762,50.851-39.385h61.395    v85.333c0,7.249,5.879,13.128,13.128,13.128h72.205c7.249,0,13.128-5.879,13.128-13.128V13.128C502.154,5.879,496.275,0,489.026,0    z M82.051,485.744H36.103V26.256h45.949V485.744z M291.446,85.333c14.478,0,26.256,11.779,26.256,26.256    s-11.779,26.256-26.256,26.256s-26.256-11.779-26.256-26.256S276.968,85.333,291.446,85.333z M212.677,85.333    c14.478,0,26.256,11.779,26.256,26.256s-11.779,26.256-26.256,26.256s-26.256-11.779-26.256-26.256S198.199,85.333,212.677,85.333    z M108.308,105.832c2.635-11.714,13.102-20.498,25.6-20.498c14.478,0,26.256,11.779,26.256,26.256s-11.779,26.256-26.256,26.256    c-12.498,0-22.965-8.784-25.6-20.498V105.832z M133.908,426.667c-12.498,0-22.965-8.784-25.6-20.498v-11.516    c2.635-11.714,13.102-20.498,25.6-20.498c14.478,0,26.256,11.779,26.256,26.256C160.164,414.888,148.385,426.667,133.908,426.667z     M212.677,426.667c-14.478,0-26.256-11.779-26.256-26.256c0-14.478,11.779-26.256,26.256-26.256s26.256,11.779,26.256,26.256    C238.933,414.888,227.155,426.667,212.677,426.667z M291.446,426.667c-14.478,0-26.256-11.779-26.256-26.256    c0-14.478,11.779-26.256,26.256-26.256s26.256,11.779,26.256,26.256C317.703,414.888,305.924,426.667,291.446,426.667z     M403.692,387.282h-61.395c-5.845-22.624-26.427-39.385-50.851-39.385c-15.672,0-29.755,6.911-39.385,17.835    c-9.63-10.924-23.712-17.835-39.385-17.835c-15.672,0-29.755,6.911-39.385,17.835c-9.63-10.924-23.712-17.835-39.385-17.835    c-9.292,0-18.021,2.439-25.6,6.693v-85.462h60.083c5.845,22.624,26.427,39.385,50.851,39.385c15.672,0,29.755-6.911,39.385-17.835    c9.63,10.924,23.712,17.835,39.385,17.835c15.672,0,29.755-6.911,39.385-17.835c9.63,10.924,23.712,17.835,39.385,17.835    c9.832,0,19.037-2.721,26.913-7.442V387.282z M192.985,256c0-14.478,11.779-26.256,26.256-26.256s26.256,11.779,26.256,26.256    s-11.779,26.256-26.256,26.256S192.985,270.478,192.985,256z M271.754,256c0-14.478,11.779-26.256,26.256-26.256    s26.256,11.779,26.256,26.256s-11.779,26.256-26.256,26.256S271.754,270.478,271.754,256z M350.523,256    c0-14.478,11.779-26.256,26.256-26.256c14.478,0,26.256,11.779,26.256,26.256s-11.779,26.256-26.256,26.256    C362.302,282.256,350.523,270.478,350.523,256z M403.692,210.93c-7.876-4.721-17.081-7.442-26.913-7.442    c-15.672,0-29.755,6.911-39.385,17.835c-9.63-10.924-23.712-17.835-39.385-17.835c-15.672,0-29.755,6.911-39.385,17.835    c-9.63-10.924-23.712-17.835-39.385-17.835c-24.424,0-45.006,16.761-50.851,39.385h-60.083V157.41    c7.579,4.254,16.308,6.693,25.6,6.693c15.672,0,29.755-6.911,39.385-17.835c9.63,10.924,23.712,17.835,39.385,17.835    c15.672,0,29.755-6.911,39.385-17.835c9.63,10.924,23.712,17.835,39.385,17.835c24.424,0,45.006-16.761,50.851-39.385h61.395    V210.93z M475.897,485.744h-45.949V26.256h45.949V485.744z" fill="#FFFFFF"/>
	</g>
</g>
<g>
</g>
<g>
</g>
<g>
</g>
<g>
</g>
<g>
</g>
<g>
</g>
<g>
</g>
<g>
</g>
<g>
</g>
<g>
</g>
<g>
</g>
<g>
</g>
<g>
</g>
<g>
</g>
<g>
</g>
</svg>
