<?xml version="1.0" encoding="iso-8859-1"?>
<!-- Generator: Adobe Illustrator 19.0.0, SVG Export Plug-In . SVG Version: 6.00 Build 0)  -->
<svg version="1.1" id="Layer_1" xmlns="http://www.w3.org/2000/svg" xmlns:xlink="http://www.w3.org/1999/xlink" x="0px" y="0px"
	 viewBox="0 0 470 470" style="enable-background:new 0 0 470 470;" xml:space="preserve">
<g>
	<g>
		<path style="fill:#F88400;" d="M235,10c124.297,0,225,100.698,225,225c0,124.297-100.703,225-225,225S10,359.297,10,235
			C10,110.698,110.703,10,235,10z"/>
	</g>
	<g id="XMLID_19_">
		<g>
			<path style="fill:#FFFFFF;" d="M350,205v65c0,49.697-40.303,90-90,90h-50c-49.707,0-90-40.303-90-90v-70
				c0-49.702,40.293-90,90-90h50c0,0,45,0,45,35s0,35,0,35s0,10,10,10s30,0,30,0s5,0,5,5S350,205,350,205z M300,275
				c0-8.301-6.699-15-15-15H185c-8.301,0-15,6.699-15,15s6.699,15,15,15h100C293.301,290,300,283.301,300,275z M260,185
				c0-8.301-6.699-15-15-15h-55c-8.301,0-15,6.699-15,15s6.699,15,15,15h55C253.301,200,260,193.301,260,185z"/>
			<path style="fill:#F88400;" d="M285,260c8.301,0,15,6.699,15,15s-6.699,15-15,15H185c-8.301,0-15-6.699-15-15s6.699-15,15-15H285
				z"/>
			<path style="fill:#F88400;" d="M245,170c8.301,0,15,6.699,15,15s-6.699,15-15,15h-55c-8.301,0-15-6.699-15-15s6.699-15,15-15H245
				z"/>
		</g>
		<g>
			<path style="fill:#231F20;" d="M401.183,68.816C356.805,24.44,297.787,0,235,0S113.195,24.44,68.818,68.816
				C24.44,113.193,0,172.211,0,235c0,62.787,24.44,121.805,68.817,166.183C113.195,445.56,172.213,470,235,470
				s121.805-24.44,166.183-68.817C445.56,356.805,470,297.787,470,235C470,172.211,445.56,113.193,401.183,68.816z M387.04,387.04
				C346.44,427.641,292.444,450,235,450s-111.44-22.359-152.04-62.96C42.359,346.44,20,292.444,20,235
				c0-57.446,22.359-111.442,62.959-152.042C123.56,42.359,177.555,20,235,20s111.44,22.359,152.04,62.958
				C427.641,123.558,450,177.554,450,235C450,292.444,427.641,346.44,387.04,387.04z"/>
			<path style="fill:#231F20;" d="M345,180h-29.966c-0.015-0.076-0.026-0.151-0.034-0.218V145c0-18.518-10.255-32.704-28.876-39.945
				C273.273,100.058,260.536,100,260,100h-50c-55.14,0-100,44.86-100,100v70c0,55.14,44.86,100,100,100h50
				c55.141,0,100-44.86,100-100v-75C360,185.257,352.272,180,345,180z M340,270c0,44.112-35.888,80-80,80h-50
				c-44.112,0-80-35.888-80-80v-70c0-44.112,35.888-80,80-80h49.971c0.099,0.001,9.946,0.102,19.317,3.858
				C293.371,129.502,295,138.627,295,145v35c0,9.695,7.01,20,20,20h25V270z"/>
			<path style="fill:#231F20;" d="M190,210h55c13.785,0,25-11.215,25-25s-11.215-25-25-25h-55c-13.785,0-25,11.215-25,25
				S176.215,210,190,210z M190,180h55c2.757,0,5,2.243,5,5s-2.243,5-5,5h-55c-2.757,0-5-2.243-5-5S187.243,180,190,180z"/>
			<path style="fill:#231F20;" d="M285,250H185c-13.785,0-25,11.215-25,25s11.215,25,25,25h100c13.785,0,25-11.215,25-25
				S298.785,250,285,250z M285,280H185c-2.757,0-5-2.243-5-5s2.243-5,5-5h100c2.757,0,5,2.243,5,5S287.757,280,285,280z"/>
		</g>
	</g>
</g>
<g>
</g>
<g>
</g>
<g>
</g>
<g>
</g>
<g>
</g>
<g>
</g>
<g>
</g>
<g>
</g>
<g>
</g>
<g>
</g>
<g>
</g>
<g>
</g>
<g>
</g>
<g>
</g>
<g>
</g>
</svg>
