<svg id="Capa_1" data-name="Capa 1" xmlns="http://www.w3.org/2000/svg" viewBox="0 0 309 136.67"><defs><style>.cls-1,.cls-4,.cls-5,.cls-6{fill:#2f4960;}.cls-1,.cls-5,.cls-6{stroke:#2f4960;}.cls-1,.cls-3,.cls-5,.cls-6,.cls-7,.cls-8,.cls-9{stroke-miterlimit:22.93;}.cls-1{stroke-width:6px;}.cls-1,.cls-2,.cls-3,.cls-4,.cls-5,.cls-6,.cls-7,.cls-9{fill-rule:evenodd;}.cls-2{fill:#221e1f;}.cls-3,.cls-7,.cls-8,.cls-9{fill:#fff;stroke:#fff;}.cls-3,.cls-6{stroke-width:0.52px;}.cls-5,.cls-8,.cls-9{stroke-width:0.65px;}.cls-7{stroke-width:1.95px;}</style></defs><title>Logo - Civico azul</title><path class="cls-1" d="M37.94,43.89H279.07a8.39,8.39,0,0,1,8.37,8.37V85.83a8.39,8.39,0,0,1-8.37,8.37H37.94a8.39,8.39,0,0,1-8.37-8.37V52.26a8.39,8.39,0,0,1,8.37-8.37"/><path class="cls-2" d="M74.64,84.89,63.26,73.74a18.12,18.12,0,0,1-4,3.95l11.09,11.5c2.74,2.74,7.21-1.39,4.3-4.3"/><path class="cls-3" d="M37.94,43.89H71.5a8.39,8.39,0,0,1,8.37,8.37V85.83a8.39,8.39,0,0,1-8.37,8.37H37.94a8.39,8.39,0,0,1-8.37-8.37V52.26a8.39,8.39,0,0,1,8.37-8.37"/><path class="cls-4" d="M74.64,84.89,63.26,73.74a18.12,18.12,0,0,1-4,3.95l11.09,11.5c2.74,2.74,7.21-1.39,4.3-4.3"/><path class="cls-5" d="M45.21,48.85A15.08,15.08,0,0,1,58,51.43l-3.72,2a11.39,11.39,0,1,0,5.88,11.83l3.84-1A15.11,15.11,0,1,1,45.21,48.85"/><path class="cls-6" d="M46.82,55.18a8.85,8.85,0,0,1,2-.27v2.17a6.66,6.66,0,0,0-6.54,6.47H40.15a8.82,8.82,0,0,1,6.67-8.37"/><path class="cls-7" d="M101.9,53.46a17.91,17.91,0,0,1,15.17,3.07l-4.42,2.41a13.53,13.53,0,1,0,7,14.06l4.56-1.22a18,18,0,1,1-22.3-18.31"/><polygon class="cls-8" points="133.02 50.09 135.75 45.09 140.62 45.09 137.58 50.08 133.02 50.09"/><polygon class="cls-8" points="159.82 89.15 146.28 54.12 148.14 54.12 151.86 54.12 162.39 81.74 172.92 54.12 176.65 54.12 178.51 54.12 164.96 89.15 162.41 89.15 162.38 89.15 159.82 89.15"/><rect class="cls-8" x="132.62" y="54.51" width="5.26" height="34.67"/><rect class="cls-8" x="186.97" y="54.51" width="5.26" height="34.67"/><path class="cls-7" d="M214.43,53.46a17.91,17.91,0,0,1,15.17,3.07l-4.42,2.41a13.53,13.53,0,1,0,7,14.06l4.56-1.22a18,18,0,1,1-22.3-18.31"/><path class="cls-9" d="M263.69,57.89a13,13,0,1,1-13,13,13,13,0,0,1,13-13m0-5.46a18.41,18.41,0,1,1-18.41,18.41A18.41,18.41,0,0,1,263.69,52.44Z"/></svg>